subject01_walk1_RRA_states
nRows=8
nColumns=47

# SIMM Motion File Header:
name subject01_walk1_RRA_states
datacolumns 47
datarows 8
otherdata 1
range 1.62299999999993180000 1.62649999999993140000
endheader
time	pelvis_tx	pelvis_ty	pelvis_tz	pelvis_tilt	pelvis_list	pelvis_rotation	hip_flexion_r	hip_adduction_r	hip_rotation_r	knee_angle_r	ankle_angle_r	subtalar_angle_r	mtp_angle_r	hip_flexion_l	hip_adduction_l	hip_rotation_l	knee_angle_l	ankle_angle_l	subtalar_angle_l	mtp_angle_l	lumbar_extension	lumbar_bending	lumbar_rotation	pelvis_tx_u	pelvis_ty_u	pelvis_tz_u	pelvis_tilt_u	pelvis_list_u	pelvis_rotation_u	hip_flexion_r_u	hip_adduction_r_u	hip_rotation_r_u	knee_angle_r_u	ankle_angle_r_u	subtalar_angle_r_u	mtp_angle_r_u	hip_flexion_l_u	hip_adduction_l_u	hip_rotation_l_u	knee_angle_l_u	ankle_angle_l_u	subtalar_angle_l_u	mtp_angle_l_u	lumbar_extension_u	lumbar_bending_u	lumbar_rotation_u
      1.62299999999993180000	      0.61404655223241889000	      1.05083553889995440000	      0.00058039143407875263	      6.10624118816127750000	     -1.82843005656208260000	      0.34494125557617383000	     18.78493150441534000000	     -3.51216082026446410000	     -7.78476500857469130000	    -58.22095707139499200000	      2.45596503274969140000	     -0.01007143826503048000	      0.01099472068492133300	     -4.74462008235052400000	      1.30906429293731750000	     -1.08669683099382080000	     -9.34273628547284220000	      6.82837541668160150000	      0.11116792199546301000	      0.06803506353587374100	    -15.85960064968534200000	     -0.26807999307837038000	     -6.54314661043340350000	     -0.11854466902392212000	     -0.02901967735904884300	     -0.06281776161324338600	     -9.92198214055201430000	      0.79654852805398535000	      9.26379863454252830000	     72.85360803305779600000	     -0.15950117470527098000	    -37.78523851971204600000	    234.22483390007881000000	     -5.19219774009045130000	      0.04082608691261523100	     -0.02822256508274900700	    -75.03526789153886500000	      3.04543353624605120000	     -0.91960868581600552000	     46.09867544580006200000	     29.58221446005720200000	      0.30261112711278870000	     -0.62469071011518684000	      1.17412276189572910000	      7.99994068042641880000	     -7.25303550907112630000
      1.62349999999993180000	      0.61398727645500462000	      1.05082078923618230000	      0.00054907732784702083	      6.10126642060983930000	     -1.82799437325668900000	      0.34951658360184290000	     18.82124443703260000000	     -3.51228640291626570000	     -7.80371729396596250000	    -58.10353299614087800000	      2.45335834993970540000	     -0.01005103851735853400	      0.01098053944417863200	     -4.78211635266617470000	      1.31062590868337090000	     -1.08721944758814740000	     -9.31970189881383960000	      6.84315996366896420000	      0.11131798808305279000	      0.06772235190740620600	    -15.85900293443200800000	     -0.26412703237867363000	     -6.54671696104882450000	     -0.11855759291332793000	     -0.02997856190890236000	     -0.06243852758877525800	     -9.97698970853338270000	      0.94618808053081072000	      9.03770044902005760000	     72.39765794255753000000	     -0.34229840515269777000	    -38.02351759981144900000	    235.47168981748641000000	     -5.23396772338780190000	      0.04077353212691868500	     -0.02850553123594845600	    -74.95013216991507900000	      3.20107031655035270000	     -1.17057408996900000000	     46.03917741929602400000	     29.55654727919716500000	      0.29744403665394487000	     -0.62669246408475165000	      1.21671566142611320000	      7.81188925118531330000	     -7.02868485454273100000
      1.62399999999993170000	      0.61392799548715860000	      1.05080556075387490000	      0.00051795304880503362	      6.09626429709999320000	     -1.82748386356518530000	      0.35397914066195413000	     18.85732869878797000000	     -3.51250258838191520000	     -7.82278813722368320000	    -57.98548515893571700000	      2.45073162644768990000	     -0.01003066466300003500	      0.01096621552380897500	     -4.81957053350812890000	      1.31226540183274330000	     -1.08786713317143760000	     -9.29669680236546190000	      6.85793224440737690000	      0.11146536409102643000	      0.06740838768926463200	    -15.85838395679498400000	     -0.26026811928210325000	     -6.55017561126523960000	     -0.11856543086593013000	     -0.03093495000124153700	     -0.06205844002202604700	    -10.03140523219554900000	      1.09585705057837730000	      8.81271031305077730000	     71.93892689578956400000	     -0.52191377213758716000	    -38.25946259495270100000	    236.71988006146969000000	     -5.27236914127707750000	      0.04072139685541609900	     -0.02878626210809880800	    -74.86691060428628900000	      3.35693841685005220000	     -1.41990761907344230000	     45.98151388662376600000	     29.53257733567939200000	      0.29226743250409143000	     -0.62862063450914196000	      1.25917177180012050000	      7.62374519003803110000	     -6.80623031463080700000
      1.62449999999993170000	      0.61386871187093073000	      1.05078985469262260000	      0.00048701902683459449	      6.09123511536945640000	     -1.82689851065090990000	      0.35832948317251606000	     18.89318290199076200000	     -3.51280778564542030000	     -7.84197635614567280000	    -57.86681289691806300000	      2.44808652530804060000	     -0.01001031700926416200	      0.01095175353146813300	     -4.85698358481778400000	      1.31398288497403510000	     -1.08863907871017050000	     -9.27372008045843010000	      6.87269275626656380000	      0.11161026240369031000	      0.06709387642868473700	    -15.85774378654693500000	     -0.25650330274280747000	     -6.55352351169265290000	     -0.11856818809474998000	     -0.03188889792672740900	     -0.06167751882496902400	    -10.08522064445256200000	      1.24555931875581580000	      8.58885597010907450000	     71.47742469785014000000	     -0.69834282579998741000	    -38.49300468477820700000	    237.96938372865722000000	     -5.30750344164111800000	      0.04066987579333913900	     -0.02906489387903895400	    -74.78561851755030400000	      3.51303370307566440000	     -1.66758149253114700000	     45.92567748843785600000	     29.50992497532895000000	      0.28712945944384688000	     -0.62972516833714298000	      1.30148439465276720000	      7.43550785813832430000	     -6.58569802945508800000
      1.62499999999993160000	      0.61380942814484929000	      1.05077367225475140000	      0.00045627566595803109	      6.08617917828523680000	     -1.82623829727532990000	      0.36256819029942694000	     18.92880566270189000000	     -3.51320040022320470000	     -7.86128072944197780000	    -57.74751555955724300000	      2.44542465066116770000	     -0.00998999474486671900	      0.01093715097220261000	     -4.89435647666003510000	      1.31577847343790230000	     -1.08953443185497620000	     -9.25077082028389340000	      6.88744245095628930000	      0.11175249570607508000	      0.06677869678184338000	    -15.85708249800503500000	     -0.25283262800009121000	     -6.55676163394938350000	     -0.11856587061540765000	     -0.03284045149376543800	     -0.06129578215954367700	    -10.13842490351804800000	      1.39530338406979350000	      8.36616385100743720000	     71.01315825361410800000	     -0.87158590614800946000	    -38.72407159023630600000	    239.22017975806125000000	     -5.33947177163723370000	      0.04061864088848304900	     -0.02934145841930662100	    -74.70627446593913100000	      3.66935636587779790000	     -1.91355790693358710000	     45.87166899510374000000	     29.48898821159142300000	      0.28200176570712576000	     -0.63067170594087840000	      1.34364320655262740000	      7.24717111488952170000	     -6.36711392494459450000
      1.62549999999993160000	      0.61375014684752294000	      1.05075701463784910000	      0.00042572337660886440	      6.08109679363423530000	     -1.82550319951186340000	      0.36669584523351184000	     18.96419560162073400000	     -3.51367884020502430000	     -7.88070000374662880000	    -57.62759250525149200000	      2.44274756423420360000	     -0.00996969817293701620	      0.01092241239587294300	     -4.93169018591830530000	      1.31765227879275360000	     -1.09055235010922160000	     -9.22784810819764620000	      6.90218196050531050000	      0.11189226518472201000	      0.06646336665311614000	    -15.85640016980411600000	     -0.24925614832560092000	     -6.55989095473493220000	     -0.11855846991066958000	     -0.03378962321495886800	     -0.06091325424018069500	    -10.19100998349236800000	      1.54509392134869870000	      8.14466122698666160000	     70.54614053386592300000	     -1.04164081856759920000	    -38.95259413998821400000	    240.47224569763341000000	     -5.36837586855006420000	      0.04056849613482572900	     -0.02961608283607756300	    -74.62889043400531400000	      3.82590360186105680000	     -2.15781431271600430000	     45.81948042722240200000	     29.46937524872429400000	      0.27688004725115339000	     -0.63069656801746621000	      1.38564306027083740000	      7.05873425794521920000	     -6.15050478334685650000
      1.62599999999993150000	      0.61369087052349713000	      1.05073988302797790000	      0.00039536254027427645	      6.07598827334091230000	     -1.82469319416555580000	      0.37071305403265103000	     18.99935134623327200000	     -3.51424150993730460000	     -7.90023288743023230000	    -57.50704310568003300000	      2.44005676855161990000	     -0.00994942616134801730	      0.01090753521016002900	     -4.96898569633439640000	      1.31960441433518060000	     -1.09169195273615990000	     -9.20495103653423820000	      6.91691211696472850000	      0.11202937494608739000	      0.06614803623583086200	    -15.85569688290454400000	     -0.24577391138808527000	     -6.56291247221666390000	     -0.11854597786206295000	     -0.03473641474008711700	     -0.06052995523816130700	    -10.24296464750174900000	      1.69493950924634840000	      7.92437385135310460000	     70.07638124879034100000	     -1.20850896488593260000	    -39.17849938684212000000	    241.72555919628832000000	     -5.39431740124864940000	      0.04051884834850024600	     -0.02988876578393261400	    -74.55348207838426300000	      3.98267439762785220000	     -2.40030892736260170000	     45.76911213946575400000	     29.45153601537846600000	      0.27175598335234108000	     -0.63055763713890467000	      1.42747496590377950000	      6.87019161077276320000	     -5.93589677333524350000
      1.62649999999993140000	      0.61363160172210873000	      1.05072227862503540000	      0.00036519354520659242	      6.07085393536267760000	     -1.82380824992001030000	      0.37462042605193591000	     19.03427152856492200000	     -3.51488681803680340000	     -7.91987805539755920000	    -57.38586674185498300000	      2.43735372356626990000	     -0.00992917901309250950	      0.01089252394113111200	     -5.00624399865582160000	      1.32163499016136020000	     -1.09295236234701590000	     -9.18207869416027300000	      6.93163372287736210000	      0.11216401294320213000	      0.06583296959158424500	    -15.85497272338775900000	     -0.24238597446933116000	     -6.56582718957002950000	     -0.11852837113849268000	     -0.03568079317244965400	     -0.06014591349012803100	    -10.29428087741990100000	      1.84484550913111090000	      7.70532850045892470000	     69.60389659365151300000	     -1.37219018936605350000	    -39.40171779215213400000	    242.98009635954560000000	     -5.41739850088181290000	      0.04047095749738088800	     -0.03015957885875840800	    -74.48005790777800400000	      4.13966678736016470000	     -2.64102215879131430000	     45.72055558073576300000	     29.43508418662836600000	      0.26658504237044900000	     -0.62950776658901719000	      1.46913538946593420000	      6.68154252797828720000	     -5.72331737122267460000
